<?xml version="1.0" encoding="utf-8"?>
<!-- Generator: Adobe Illustrator 22.1.0, SVG Export Plug-In . SVG Version: 6.00 Build 0)  -->
<svg version="1.1" id="레이어_1" xmlns="http://www.w3.org/2000/svg" xmlns:xlink="http://www.w3.org/1999/xlink" x="0px"
	 y="0px" viewBox="0 0 600 60" style="enable-background:new 0 0 600 60;" xml:space="preserve">
<style type="text/css">
	.st0{fill:none;}
	.st1{fill:none;stroke:#FFFFFF;stroke-width:4;stroke-linecap:round;stroke-miterlimit:10;}
	.st2{fill:none;stroke:#FFFFFF;stroke-width:4;stroke-linecap:round;stroke-linejoin:round;}
</style>
<title>weather-icon</title>
<g>
	<rect class="st0" width="60" height="60"/>
	<circle class="st1" cx="30" cy="30" r="13.1"/>
	<line class="st1" x1="30" y1="9.4" x2="30" y2="3.8"/>
	<line class="st1" x1="15.4" y1="15.4" x2="11.4" y2="11.4"/>
	<line class="st1" x1="9.4" y1="30" x2="3.8" y2="30"/>
	<line class="st1" x1="15.4" y1="44.6" x2="11.4" y2="48.6"/>
	<line class="st1" x1="30" y1="50.6" x2="30" y2="56.2"/>
	<line class="st1" x1="44.6" y1="44.6" x2="48.6" y2="48.6"/>
	<line class="st1" x1="50.6" y1="30" x2="56.2" y2="30"/>
	<line class="st1" x1="44.6" y1="15.4" x2="48.6" y2="11.4"/>
</g>
<g>
	<rect x="240" class="st0" width="60" height="60"/>
	<path class="st2" d="M286.9,28.1c0-8.3-6.8-15-15.1-14.9c-6.9,0-12.8,4.7-14.5,11.4c-0.8-0.2-1.5-0.2-2.3-0.2
		c-6.2,0-11.3,5-11.3,11.2c0,6.2,5,11.3,11.2,11.3c0,0,0,0,0,0h31.9c5.2,0.2,9.5-3.9,9.7-9.1s-3.9-9.5-9.1-9.7
		C287.3,28.1,287.1,28.1,286.9,28.1z"/>
</g>
<g>
	<rect x="120" class="st0" width="60" height="60"/>
	<line class="st1" x1="142.1" y1="14.5" x2="142.1" y2="10.8"/>
	<line class="st1" x1="132.2" y1="18.6" x2="129.5" y2="15.9"/>
	<line class="st1" x1="128" y1="28.5" x2="124.2" y2="28.5"/>
	<line class="st1" x1="132.1" y1="38.5" x2="129.4" y2="41.1"/>
	<line class="st1" x1="152" y1="18.7" x2="154.7" y2="16"/>
	<path class="st2" d="M142.9,32.3c0.7,0,1.4,0.1,2.1,0.3c0.6-3,2.3-5.7,4.8-7.5c-1.9-4.3-6.8-6.2-11.1-4.4
		c-4.3,1.9-6.2,6.8-4.4,11.1c0.5,1.2,1.4,2.3,2.4,3.2C138.3,33.3,140.6,32.3,142.9,32.3z"/>
	<path class="st2" d="M168.2,34.2L168.2,34.2c-0.2-6.5-5.6-11.5-12.1-11.3c-5.6,0.2-10.3,4.3-11.2,9.7c-0.7-0.2-1.4-0.3-2.1-0.3
		c-4.7-0.2-8.6,3.5-8.7,8.1s3.5,8.6,8.1,8.7c0.2,0,0.4,0,0.6,0h25.3c4.1,0,7.5-3.4,7.5-7.5S172.4,34.2,168.2,34.2L168.2,34.2z"/>
</g>
<g>
	<rect x="60" class="st0" width="60" height="60"/>
	<path class="st2" d="M87.1,20.6c0-2.6,0.6-5.1,1.7-7.4c-9.3,1.1-15.9,9.5-14.8,18.8s9.5,15.9,18.8,14.8c5.7-0.7,10.7-4.2,13.2-9.4
		c-0.7,0.1-1.3,0.1-2,0.1C94.7,37.4,87.1,29.9,87.1,20.6C87.1,20.6,87.1,20.6,87.1,20.6z"/>
</g>
<g>
	<rect x="180" class="st0" width="60" height="60"/>
	<path class="st2" d="M199.1,29.9c0.7,0,1.4,0.1,2.1,0.3c0.7-3.6,2.9-6.7,6.2-8.3c-0.7-4.5-4.3-8-8.9-8.6c2.5,5.1,0.4,11.2-4.6,13.8
		c-1.8,0.9-3.9,1.2-5.9,1c1,2.1,2.7,3.8,4.8,4.8C194.4,30.9,196.7,29.9,199.1,29.9z"/>
	<path class="st2" d="M224.5,31.7L224.5,31.7c-0.2-6.3-5.4-11.2-11.7-11.2c-5.7,0.1-10.5,4.1-11.5,9.7c-4.5-1.1-9.1,1.6-10.3,6.2
		c-0.2,0.7-0.2,1.3-0.3,2c0,4.7,3.8,8.4,8.4,8.4h25.3c4.1,0,7.5-3.4,7.5-7.5S228.6,31.7,224.5,31.7L224.5,31.7z"/>
</g>
<g>
	<rect x="300" class="st0" width="60" height="60"/>
	<path class="st2" d="M346.9,22.4c-0.1-8.3-6.8-15-15.1-14.9c-6.9,0-12.8,4.7-14.5,11.4c-0.8-0.2-1.5-0.2-2.3-0.2
		c-6.2,0-11.2,5-11.2,11.3s5,11.2,11.2,11.2h31.9c5.2,0.2,9.5-3.9,9.7-9.1c0.2-5.2-3.9-9.5-9.1-9.7
		C347.3,22.4,347.1,22.4,346.9,22.4z"/>
	<line class="st2" x1="315" y1="52.6" x2="319.8" y2="46.8"/>
	<line class="st2" x1="326.2" y1="52.6" x2="331.1" y2="46.8"/>
	<line class="st2" x1="337.5" y1="52.6" x2="342.3" y2="46.8"/>
</g>
<g>
	<rect x="360" class="st0" width="60" height="60"/>
	<path class="st2" d="M406.9,22.5c-0.1-8.3-6.8-15-15.1-14.9c-6.9,0-12.8,4.7-14.5,11.4c-0.8-0.2-1.5-0.2-2.3-0.2
		c-6.2,0-11.2,5-11.2,11.3s5,11.2,11.2,11.2h31.9c5.2,0.2,9.5-3.9,9.7-9.1s-3.9-9.5-9.1-9.7C407.3,22.5,407.1,22.5,406.9,22.5
		L406.9,22.5z"/>
	<line class="st2" x1="378.8" y1="52.5" x2="378.8" y2="46.9"/>
	<line class="st2" x1="390" y1="52.5" x2="390" y2="46.9"/>
	<line class="st2" x1="401.2" y1="52.5" x2="401.2" y2="46.9"/>
</g>
<g>
	<rect x="420" class="st0" width="60" height="60"/>
	<path class="st2" d="M457.5,38.4h9.3c5.2,0.2,9.5-3.9,9.7-9.1s-3.9-9.5-9.1-9.7c-0.2,0-0.4,0-0.6,0c-0.1-8.3-6.8-15-15.1-14.9
		c-6.9,0-12.8,4.7-14.5,11.4c-0.8-0.2-1.5-0.2-2.3-0.2c-6.2,0-11.2,5-11.2,11.2s5,11.2,11.2,11.2l0,0h7.5"/>
	<polygon class="st2" points="455.6,42.5 450.1,42.5 450,42.5 450,34.5 444.4,47.3 449.9,47.3 450,47.3 450,55.3 	"/>
</g>
<g>
	<rect x="480" class="st0" width="60" height="60"/>
	<path class="st2" d="M526.9,21.6c-0.1-8.3-6.8-15-15.1-14.9c-6.9,0-12.8,4.7-14.5,11.4c-0.8-0.2-1.5-0.2-2.3-0.2
		c-6.2,0.2-11.1,5.4-10.9,11.6c0.2,6,5,10.7,10.9,10.9h31.9c5.2,0,9.4-4.2,9.4-9.4C536.2,25.8,532,21.6,526.9,21.6z"/>
	<circle class="st2" cx="510" cy="51.6" r="1.9"/>
	<circle class="st2" cx="498.8" cy="47.8" r="1.9"/>
	<circle class="st2" cx="521.2" cy="45.9" r="1.9"/>
</g>
<g>
	<rect x="540" class="st0" width="60" height="60"/>
	<line class="st2" x1="560.8" y1="13.3" x2="578.4" y2="13.3"/>
	<ellipse class="st2" cx="585.4" cy="13.3" rx="1" ry="1"/>
	<ellipse class="st2" cx="554.3" cy="13.3" rx="1" ry="1"/>
	<ellipse class="st2" cx="547" cy="24.5" rx="1" ry="1"/>
	<line class="st2" x1="553.6" y1="24.5" x2="571.1" y2="24.5"/>
	<line class="st2" x1="585.2" y1="24.5" x2="593" y2="24.5"/>
	<ellipse class="st2" cx="578.4" cy="24.5" rx="1" ry="1"/>
	<line class="st2" x1="547" y1="35.5" x2="554.8" y2="35.5"/>
	<ellipse class="st2" cx="561.6" cy="35.5" rx="1" ry="1"/>
	<line class="st2" x1="568.3" y1="35.5" x2="585.8" y2="35.5"/>
	<ellipse class="st2" cx="593" cy="35.5" rx="1" ry="1"/>
	<ellipse class="st2" cx="555.7" cy="46.7" rx="1" ry="1"/>
	<line class="st2" x1="562.7" y1="46.7" x2="577.6" y2="46.7"/>
	<ellipse class="st2" cx="584.6" cy="46.7" rx="1" ry="1"/>
</g>
</svg>
